<svg xmlns="http://www.w3.org/2000/svg"  viewBox="0 0 80 80" width="80px" height="80px"><path d="M 40 7 C 21.786436 7 7 21.786449 7 40 C 7 58.213551 21.786436 73 40 73 C 58.213564 73 73 58.213551 73 40 C 73 21.786449 58.213564 7 40 7 z M 40 9 C 57.132684 9 71 22.867328 71 40 C 71 57.068443 57.235321 70.890703 40.191406 70.994141 L 40.347656 70.9375 C 43.391409 69.81125 52.300614 66.068596 57.865234 56.501953 C 59.444304 53.786038 62 47.758134 62 40 A 1.0001 1.0001 0 0 0 61.919922 39.595703 C 61.960159 39.481439 61.983425 39.35904 61.978516 39.230469 L 61.990234 39.230469 C 61.970234 38.670469 61.499219 38.239766 60.949219 38.259766 C 60.398219 38.279766 59.969234 38.740781 59.990234 39.300781 C 59.994561 39.417604 60.026117 39.5244 60.066406 39.626953 A 1.0001 1.0001 0 0 0 60 40 C 60 47.313866 57.533696 53.091962 56.134766 55.498047 C 51.497541 63.470321 44.549551 67.019134 41 68.484375 L 41 66.9375 C 41 63.414611 38.636441 60.270325 35.199219 59.410156 C 26.174321 57.150839 19.482381 48.681308 20.03125 38.876953 A 1.0001 1.0001 0 0 0 18.974609 37.808594 A 1.0001 1.0001 0 0 0 18.035156 38.765625 C 18.035083 38.766939 18.03523 38.768218 18.035156 38.769531 L 18.029297 38.769531 C 18.028587 38.782554 18.035367 38.793713 18.035156 38.806641 C 17.453107 49.56277 24.78647 58.864114 34.714844 61.349609 C 37.247621 61.98344 39 64.306389 39 66.9375 L 39 70.974609 C 22.332215 70.446086 9 56.797151 9 40 C 9 22.867328 22.867316 9 40 9 z M 40.240234 18 C 39.679234 18 39.230469 18.440234 39.230469 18.990234 C 39.220469 19.540234 39.660703 20 40.220703 20 C 40.770703 20 41.220469 19.559766 41.230469 19.009766 C 41.230469 18.459766 40.790234 18.01 40.240234 18 z M 36.070312 18.359375 C 35.520312 18.459375 35.159766 18.979531 35.259766 19.519531 C 35.349766 19.999531 35.77 20.339844 36.25 20.339844 C 36.31 20.339844 36.369687 20.340078 36.429688 20.330078 C 36.969687 20.220078 37.331469 19.700156 37.230469 19.160156 C 37.131078 18.623448 36.616582 18.265548 36.070312 18.359375 z M 44.001953 18.447266 C 43.619922 18.522266 43.30125 18.817969 43.21875 19.230469 C 43.09875 19.760469 43.450234 20.290156 43.990234 20.410156 C 44.060234 20.420156 44.130453 20.429688 44.189453 20.429688 C 44.659453 20.429688 45.079687 20.100859 45.179688 19.630859 C 45.290688 19.090859 44.938437 18.559219 44.398438 18.449219 C 44.263438 18.421719 44.129297 18.422266 44.001953 18.447266 z M 32.433594 19.441406 C 32.302969 19.438125 32.169063 19.459766 32.039062 19.509766 C 31.529062 19.709766 31.279516 20.290547 31.478516 20.810547 C 31.629516 21.200547 32.010156 21.439453 32.410156 21.439453 C 32.530156 21.439453 32.659297 21.419141 32.779297 21.369141 C 33.289297 21.169141 33.539844 20.590312 33.339844 20.070312 C 33.189844 19.687812 32.825469 19.45125 32.433594 19.441406 z M 48.009766 19.603516 C 47.618828 19.606328 47.247344 19.838203 47.089844 20.220703 C 46.869844 20.730703 47.109859 21.319297 47.630859 21.529297 C 47.750859 21.579297 47.879766 21.609375 48.009766 21.609375 C 48.399766 21.609375 48.769688 21.380234 48.929688 20.990234 C 49.149687 20.480234 48.900391 19.899687 48.400391 19.679688 C 48.272891 19.627188 48.140078 19.602578 48.009766 19.603516 z M 28.6875 21.265625 C 28.560109 21.287344 28.435562 21.335156 28.320312 21.410156 C 27.850312 21.710156 27.709766 22.319063 28.009766 22.789062 C 28.199766 23.089063 28.519609 23.25 28.849609 23.25 C 29.039609 23.25 29.220625 23.199609 29.390625 23.099609 C 29.850625 22.799609 29.990453 22.180703 29.689453 21.720703 C 29.471953 21.368203 29.069672 21.200469 28.6875 21.265625 z M 51.716797 21.507812 C 51.330078 21.435156 50.924219 21.594453 50.699219 21.939453 C 50.388219 22.399453 50.518516 23.020312 50.978516 23.320312 C 51.148516 23.440312 51.34025 23.490234 51.53125 23.490234 C 51.85025 23.490234 52.170375 23.329062 52.359375 23.039062 C 52.669375 22.579063 52.539844 21.960156 52.089844 21.660156 C 51.972344 21.582656 51.845703 21.532031 51.716797 21.507812 z M 25.726562 23.699219 C 25.470313 23.690469 25.209766 23.780703 25.009766 23.970703 C 24.609766 24.350703 24.590703 24.980859 24.970703 25.380859 C 25.160703 25.590859 25.429453 25.699219 25.689453 25.699219 C 25.939453 25.699219 26.190859 25.609687 26.380859 25.429688 C 26.780859 25.049688 26.799922 24.419531 26.419922 24.019531 C 26.234922 23.814531 25.982812 23.707969 25.726562 23.699219 z M 54.625 24.001953 C 54.36875 24.005703 54.114922 24.105781 53.919922 24.300781 C 53.540922 24.700781 53.540453 25.330703 53.939453 25.720703 C 54.130453 25.910703 54.389672 26 54.638672 26 C 54.898672 26 55.160609 25.899219 55.349609 25.699219 C 55.739609 25.299219 55.729844 24.669062 55.339844 24.289062 L 55.339844 24.279297 C 55.139844 24.089297 54.88125 23.998203 54.625 24.001953 z M 22.894531 26.701172 C 22.642156 26.739922 22.404734 26.874609 22.240234 27.099609 C 21.910234 27.549609 22.010938 28.17 22.460938 28.5 C 22.630937 28.63 22.839828 28.689453 23.048828 28.689453 C 23.348828 28.689453 23.660609 28.549297 23.849609 28.279297 C 24.179609 27.829297 24.078672 27.210859 23.638672 26.880859 C 23.413672 26.720859 23.146906 26.662422 22.894531 26.701172 z M 57.392578 27.060547 C 57.141203 27.016797 56.873438 27.070469 56.648438 27.230469 C 56.199437 27.540469 56.088437 28.159141 56.398438 28.619141 C 56.599438 28.899141 56.910703 29.039062 57.220703 29.039062 C 57.420703 29.039062 57.620781 28.989375 57.800781 28.859375 C 58.250781 28.549375 58.358063 27.920703 58.039062 27.470703 C 57.878563 27.245703 57.643953 27.104297 57.392578 27.060547 z M 21.042969 30.121094 C 20.6525 30.102344 20.272109 30.314453 20.099609 30.689453 C 19.859609 31.189453 20.068359 31.789531 20.568359 32.019531 C 20.709359 32.089531 20.85 32.119141 21 32.119141 C 21.37 32.119141 21.728437 31.910781 21.898438 31.550781 C 22.138438 31.050781 21.929688 30.450703 21.429688 30.220703 C 21.304688 30.160703 21.173125 30.127344 21.042969 30.121094 z M 59.169922 30.521484 C 59.039469 30.524453 58.906797 30.551875 58.779297 30.609375 C 58.279297 30.829375 58.049297 31.419687 58.279297 31.929688 C 58.438297 32.299688 58.810453 32.519531 59.189453 32.519531 C 59.329453 32.519531 59.469609 32.489688 59.599609 32.429688 C 60.099609 32.209688 60.329609 31.609375 60.099609 31.109375 C 59.935359 30.734375 59.561281 30.512578 59.169922 30.521484 z M 19.494141 33.886719 C 19.109156 33.942969 18.774922 34.225859 18.669922 34.630859 C 18.539922 35.160859 18.858438 35.709844 19.398438 35.839844 C 19.478437 35.869844 19.560625 35.880859 19.640625 35.880859 C 20.090625 35.880859 20.500375 35.569141 20.609375 35.119141 C 20.749375 34.589141 20.420625 34.040156 19.890625 33.910156 C 19.757875 33.875156 19.622469 33.867969 19.494141 33.886719 z M 60.632812 34.316406 C 60.505766 34.294375 60.372484 34.297578 60.240234 34.330078 C 59.700234 34.450078 59.359234 34.989297 59.490234 35.529297 C 59.600234 35.989297 60.010937 36.300781 60.460938 36.300781 C 60.540937 36.300781 60.609453 36.289297 60.689453 36.279297 C 61.229453 36.149297 61.559453 35.610078 61.439453 35.080078 C 61.341953 34.675078 61.013953 34.3825 60.632812 34.316406 z"/></svg>